<svg width="173" height="172" viewBox="0 0 173 172" fill="none" xmlns="http://www.w3.org/2000/svg">
<path d="M100.988 88.0634C101.63 87.9657 102.278 87.927 102.933 87.9905C115.886 89.2472 127.467 96.2883 135.96 105.931C141.894 112.668 146.092 121.031 147.608 129.868C147.914 131.654 148.002 138.675 147.817 140.633C147.076 148.479 143.099 157.355 137.279 162.656C130.847 168.515 121.183 172.534 112.457 171.903C110.516 171.482 108.53 171.314 106.578 170.862C97.8968 168.847 89.6631 163.266 87.3728 154.229C87.2615 153.79 87.3829 153.634 87.6204 153.331C89.0809 152.798 90.9273 153.716 92.4337 153.816C101.231 154.467 109.968 150.976 115.614 144.236C128.174 129.242 119.213 106.143 105.455 95.2396C103.817 93.9416 101.951 92.56 100.455 91.1638C99.9691 89.604 99.7504 89.2425 100.988 88.0634Z" fill="#F9FAFB"/>
<path d="M85.0722 102.548C86.4022 102.518 87.1565 103.646 87.4233 104.826C92.4577 127.089 78.1478 153.71 55.8581 159.932C38.4161 164.801 18.5054 156.926 13.3841 138.527C11.783 132.527 11.3873 128.964 12.8075 122.799C13.2864 120.719 13.5312 119.224 14.4177 117.159C15.9463 113.596 18.3908 109.78 22.1232 108.273C22.4611 112.87 24.5872 119.012 27.2202 122.789C31.0294 128.52 37.3611 132.28 44.2267 133.262C59.7436 135.482 73.6889 124.289 80.2368 110.945C81.5344 108.301 82.4558 107.034 83.0453 104.092C83.8717 103.306 84.0735 103.134 85.0722 102.548Z" fill="#F9FAFB"/>
<path d="M128.539 38.781C136.377 38.1724 143.459 39.1957 150.694 42.3326C155.964 44.6175 161.585 49.2406 165.107 53.8122C167.209 56.5403 168.695 59.8043 170.028 62.863C172.744 69.0934 172.797 79.7302 170.065 85.9401C167.649 91.4303 162.715 97.6281 156.879 99.8595C154.822 100.646 150.205 102.41 147.703 101.628C147.544 101.578 147.188 101.305 147.222 101.075C147.561 98.8077 148.894 97.3888 149.42 94.8087C150.673 88.673 150.451 84.1209 148.495 78.3015C147.968 77.0855 147.397 75.8891 146.784 74.7147C145.503 72.319 144.213 70.5016 142.361 68.5604C129.895 55.4995 110.277 56.9884 96.4896 67.0205C94.8704 68.1989 93.4277 69.4904 91.6689 70.4376C90.2984 69.9248 90.2532 69.7623 89.5322 68.4545C93.8678 51.7467 111.845 39.7635 128.539 38.781Z" fill="#F9FAFB"/>
<path d="M27.1102 32.3971C31.0331 32.1284 35.2432 32.1007 38.8739 33.6925C40.1028 34.2312 41.2116 34.5056 41.7726 35.7978C41.6224 36.5077 34.4552 41.5076 33.168 42.8885C26.9397 49.57 26.053 61.2291 29.1186 69.4852C32.6832 79.0849 41.1963 85.6994 50.6183 89.0174C53.8539 90.1645 62.2552 90.6709 65.9749 91.4289C69.5735 95.461 56.0832 98.4076 53.9052 98.9554C39.6024 101.751 24.267 98.0009 12.8836 88.9635C-1.25633 77.7377 -4.65753 56.3418 7.20955 42.2723C11.7748 36.8598 20.1021 32.958 27.1102 32.3971Z" fill="#F9FAFB"/>
<path d="M83.5267 0.114372C84.4446 -0.0476104 88.6737 -0.00339057 89.8413 0.0416458C97.019 0.318481 104.292 3.72865 109.233 8.88682C113.805 13.6606 116.626 19.0692 116.303 25.7754C116.251 26.8515 116.184 28.0618 115.355 28.8291C114.217 29.0525 108.35 25.286 106.706 24.6716C88.1275 17.7275 72.0411 32.1259 69.1328 50.4574C68.6817 54.1928 68.6176 57.9648 68.9421 61.7133C69.1638 64.2282 70.8801 69.2729 70.3701 70.7245C69.9295 71.2976 69.1963 71.5586 68.5309 71.8649C67.0301 71.5071 65.9247 70.8756 64.834 69.8369C49.5303 55.263 49.0196 25.8188 63.2113 10.3195C67.7366 5.37739 76.9793 0.453466 83.5267 0.114372Z" fill="#F9FAFB"/>
</svg>
