<svg width="896" height="886" viewBox="0 0 896 886" fill="none" xmlns="http://www.w3.org/2000/svg">
<path d="M328.248 721.233C337.041 720.553 355.537 721.098 365.036 721.105L438.471 721.135L534.132 721.105C541.651 721.105 566.204 719.953 572.088 721.662C574.874 722.47 577.556 724.797 578.861 727.35C582.057 733.602 582.179 769.862 579.816 776.089C578.328 779.99 575.279 781.974 571.58 783.529C554.534 784.147 534.205 783.621 516.963 783.621L410.018 783.633L353.576 783.67C345.481 783.67 336.071 784.049 328.2 783.345C318.16 781.661 318.014 769.593 318.327 762.049C318.788 750.973 317.417 738.623 319.516 728.011C322.558 724.013 323.642 723.217 328.248 721.233ZM570.509 779.702C577.82 775.979 576.92 772.85 576.883 765.288C576.828 755.008 577.171 744.648 576.766 734.392C576.424 727.644 572.358 724.803 566.014 724.956C551.307 724.803 536.636 724.882 521.947 724.901L442.776 724.919L367.211 724.907C355.116 724.913 340.577 724.552 328.64 724.999C322.166 728.979 321.688 733.265 322.192 740.845C322.893 751.389 319.84 767.585 324.659 776.892C327.056 781.521 347.051 779.494 352.208 779.947C354.59 780.155 359.631 779.947 362.245 779.947L422.202 779.898L518.842 779.886C534.658 779.892 554.993 780.455 570.509 779.702Z" fill="#6A3EFC"/>
<path d="M13.3697 664.809C18.3624 664.791 23.9135 665.648 28.886 666.315C61.6156 670.7 93.0893 691.432 96.6296 726.603C97.7348 737.582 96.0546 745.241 93.4315 755.975C102.881 775.967 110.258 789.787 113.27 812.944C116.035 802.627 119.511 794.679 124.526 785.262C124.248 784.478 123.991 783.688 123.755 782.892C116.47 758.865 121.901 736.216 141.679 720.29C153.488 710.781 165.551 706.862 179.73 702.705C181.657 709.562 182.459 722.611 182.457 729.756C182.453 745.376 177.527 762.949 165.887 773.983C154.821 784.478 142.785 787.582 127.942 787.417C112.907 811.677 108.216 846.192 116.04 873.611C129.178 873.232 143.805 873.581 157.128 873.581H235.903C235.361 871.119 235.01 869.129 235.231 866.582C235.591 862.179 237.698 858.102 241.083 855.267C244.727 852.309 249.407 850.938 254.072 851.458C266.201 852.854 269.938 862.816 268.393 873.642L476.226 873.532C484.504 873.544 536.434 872.509 539.453 874.138C540.671 874.799 540.726 874.768 541.149 876.152C538.963 877.959 514.685 877.101 510.227 877.101L453.105 877.12L266.481 877.163C258.094 887.59 245.725 888.006 237.576 877.107L111.159 877.156L69.0973 877.095C64.4457 877.095 49.8324 878.289 46.8768 875.583L47.0678 874.53C50.4043 872.919 104.181 873.593 111.984 873.599C103.828 857.091 91.5616 847.76 72.4093 848.115C68.82 848.182 64.4793 849.695 62.0656 848.764L61.8887 847.3C64.2467 844.227 76.7579 843.945 80.7715 844.551C92.7433 846.358 101.923 852.132 109.287 861.616C107.177 843.706 109.385 836.408 110.337 820.365C111.353 803.233 98.4396 774.265 90.2267 758.498C63.4727 759.227 42.5484 750.66 28.8267 726.725C25.8007 721.429 23.2773 715.863 21.291 710.095C18.4101 701.786 11.2572 672.751 13.3697 664.809ZM58.2834 710.481C69.3955 718.221 84.3725 739.535 90.9199 751.879C93.6991 731.005 94.6604 715.386 80.9485 697.635C67.0767 679.676 39.1134 669.181 16.9577 668.893C22.2107 714.026 35.4494 754.518 88.0727 754.94C83.4687 746.533 78.2323 738.494 72.4087 730.877C69.8499 727.472 57.7189 714.038 56.9419 711.987C57.6674 710.64 57.1672 711.087 58.2834 710.481ZM141.472 763.115C138.137 770.677 133.714 777.045 129.421 784.111C168.811 781.472 180.82 754.193 177.867 717.112C177.611 713.904 177.473 711.338 176.744 708.136C176.338 708.001 175.932 707.873 175.526 707.738C138.777 719.335 117.035 741.592 127.121 781.827C129.447 776.977 136.388 765.754 140.454 762.441L141.474 762.215L141.472 763.115ZM253.176 881.191C260.433 880.585 265.804 874.181 265.137 866.931C264.47 859.681 258.02 854.366 250.775 855.095C243.618 855.818 238.379 862.173 239.039 869.331C239.698 876.495 246.008 881.792 253.176 881.191Z" fill="#6A3EFC"/>
<path d="M878.357 624.471C880.604 624.213 879.674 623.932 881.333 624.936C882.3 628.751 836.494 739.094 831.767 749.479C823.721 743.588 809.791 730.289 801.348 723.137C796.253 727.252 774.651 745.695 770.291 746.497C768.473 744.439 769.012 735.108 769.024 731.789C768.112 721.288 767.218 704.682 767.285 694.298C756.172 689.13 745.224 683.417 734.11 678.225C730.063 676.333 725.967 674.337 722.158 672.004C732.843 667.369 759.521 660.015 771.657 656.31L878.357 624.471ZM787.846 711.099C784.815 718.912 779.396 731.93 775.398 739.076L782.305 733.436C788.005 729.113 793.216 725.25 798.555 720.462C796.419 718.533 790.02 712.594 787.846 711.099ZM855.726 643.36C832.422 658.276 807.918 671.777 784.387 686.411C780.229 688.995 775.539 691.665 771.173 693.881C771.577 703.972 773.469 725.911 772.967 734.845C776.31 731.857 782.091 710.04 787.436 705.013C794.049 698.798 800.894 692.908 807.691 686.926L842.831 655.766C844.913 653.916 855.218 645.326 856.241 643.801L855.726 643.36ZM731.398 672.524C736.186 675.078 740.858 677.245 745.763 679.541C753.459 683.693 761.444 686.809 768.963 691.157L840.817 648.161C848.464 643.636 858.702 636.845 866.111 632.89L866.546 632.075L866.154 631.916C838.937 640.372 811.371 648.228 784.032 656.396C767.071 661.466 748.365 668.201 731.398 672.524ZM790.038 707.756C794.924 711.938 805.046 720.284 809.197 724.693C816.38 730.767 823.458 737.129 830.64 743.117L857.98 675.745C861.935 665.581 866.019 655.459 870.22 645.393C871.689 641.854 873.104 637.274 874.738 634.096L874.322 632.988C847.846 657.915 817.329 683.184 790.038 707.756Z" fill="#6A3EFC"/>
<path d="M134.736 302.671C173.985 282.637 216.507 269.802 260.285 264.772C264.147 264.355 275.864 262.902 278.957 263.256L279.253 263.82C277.146 264.806 258.259 267.507 254.407 268.181C245.395 269.844 236.415 271.68 227.472 273.687C191.211 281.919 167.504 290.948 134.286 306.73C133.891 320.374 133.434 329.613 139.887 342.168C158.087 377.57 194.458 383.68 229.712 388.229C229.813 372.561 229.823 356.892 229.742 341.224C229.72 329.914 227.414 311.588 236.036 303.395C238.937 300.639 242.818 298.63 246.827 298.232C263.916 297.598 281.837 297.868 298.922 297.878L399.916 297.867L563.743 297.831C591.468 297.813 619.291 297.834 647.022 297.828C652.601 297.981 658.479 299.535 662.195 303.942C664.669 306.879 667.155 310.959 667.32 314.84C667.608 321.777 667.522 328.866 667.522 335.8V375.801L667.504 501.495L667.455 658.552C667.541 680.129 667.351 701.713 666.873 723.284C666.775 727.172 667.382 744.433 665.49 746.687C664.424 745.658 664.663 744.776 664.632 742.835C662.869 641.572 663.561 540.009 663.475 438.704L663.506 359.924C663.518 346.674 663.591 333.321 663.42 320.077C663.169 300.842 651.29 301.424 635.909 301.629C604.504 301.834 573.105 301.863 541.7 301.718L366.248 301.71L290.059 301.706C277.025 301.707 263.576 301.532 250.567 301.907C246.006 302.507 242.403 301.974 239.078 305.68C236.172 308.919 234.196 311.969 234.094 316.518C233.637 336.863 233.875 357.322 233.902 377.67L233.942 494.809L233.94 696.814C233.94 727.846 233.835 758.92 233.829 789.958C233.828 798.72 235.69 806.215 242.425 812.509C246.828 816.698 252.397 819.453 258.396 820.408C264.743 821.357 275.682 820.996 282.438 820.959L318.875 820.88L593.715 820.849C596.195 820.861 602.698 820.861 603.898 823.108C601.749 824.529 597.499 824.762 594.891 824.756C568.029 824.707 541.112 824.7 514.244 824.7L353.06 824.682L290.967 824.756C271.928 824.792 246.261 828.668 234.774 809.172C232.013 804.488 230.235 800.392 230.06 794.875C229.503 780.461 229.805 765.515 229.823 751.065L229.78 670.038L229.734 390.816C180.359 389.27 127.903 367.848 129.938 310.474L129.986 309.284C92.7073 328.367 55.3702 363.596 41.5505 403.43C26.9403 445.54 50.3615 477.732 90.6224 490.027C111.479 496.395 125.717 496.199 146.548 498.428C149.383 500.393 155.546 497.277 158.582 500.001C140.882 502.5 111.842 499.91 94.8626 495.311C74.1832 490.119 51.6823 478.203 41.1512 458.567C13.5841 407.172 63.2352 349.55 103.176 321.137C112.073 314.808 121.124 309.744 130.444 304.521C131.846 299.538 133.011 295.392 133.988 290.326L137.976 284.505C137.671 294.143 138.243 293.41 134.736 302.671Z" fill="#6A3EFC"/>
<path d="M169.829 61.9935L176.92 61.4001L176.955 62.4092C178.488 109.125 163.667 147.861 111.133 149.56C108.824 156.597 107.5 163.781 105.182 170.6C103.317 169.872 104.061 170.437 102.852 168.863C102.107 163.134 105.819 153.15 107.748 147.725C95.634 113.338 109.718 83.3482 143.21 69.1556C152.451 65.2393 159.959 63.6871 169.829 61.9935ZM141.496 102.41C140.493 105.553 128.875 118.871 125.595 123.564C120.575 130.601 116.357 138.177 113.019 146.151C132.227 144.216 144.49 140.434 157.765 124.963C170.257 110.405 174.256 84.6598 173.113 65.9802L172.333 65.7126C153.295 67.446 132.083 75.433 119.568 90.4669C110.496 101.333 106.224 115.417 107.732 129.493C108.145 133.607 109.165 138.77 110.07 142.839C114.135 134.226 131.551 103.818 141.496 102.41Z" fill="#6A3EFC"/>
<path d="M724.491 0C725.526 0.356974 726.567 0.501472 727.008 1.65934C727.914 4.03263 727.908 8.50797 728.288 11.1831C729.837 22.0656 732.249 32.0713 738.029 41.5479C752.676 65.5686 776.157 63.9399 778.601 67.2727L778.239 68.3063C774.596 70.0495 767.481 69.826 760.434 73.0498C743.038 81.0048 732.941 97.2769 729.586 115.699C728.667 120.741 727.785 131.199 726.248 135.017C725.434 134.728 724.203 133.964 724.008 133.304C722.826 128.909 722.893 124.188 722.14 119.647C718.405 97.2426 705.932 76.6422 682.885 70.5644C679.787 69.7482 674.233 69.965 671.919 67.7803L672.139 66.5557C673.462 65.4499 683.436 64.3985 687.912 62.6816C707.463 55.1736 717.872 37.5563 721.381 17.6178C722.213 12.8455 722.783 3.79139 724.491 0ZM685.549 67.3529C702.362 73.4423 710.757 80.7244 719.036 97.0791C722.611 104.154 723.389 110.716 725.55 115.844C730.975 92.9699 741.311 74.2413 765.363 67.4919C746.577 61.1588 734.992 49.8165 728.747 30.6961C728.061 28.5946 726.432 20.9329 725.171 19.8319C721.613 36.2319 713.66 51.8781 699.123 61.1037C694.886 63.7581 690.325 65.8583 685.549 67.3529Z" fill="#6A3EFC"/>
<path d="M519.051 129.956C565.31 127.585 629.455 134.272 667.326 163.463C679.162 172.586 689.179 186.145 690.496 201.323C691.218 209.705 690.71 222.469 685.2 229.236C683.595 227.266 687.392 208.729 687.018 203.806C685.408 182.524 666.628 164.431 647.439 155.623C556.309 113.791 419.461 139.11 328.666 168.064C278.519 183.337 225.253 206.992 183.495 239.043C177.523 243.746 171.731 248.656 166.24 253.914C161.312 258.632 156.82 264.11 151.405 268.24C163.795 246.468 195.402 224.235 217.345 211.887C303.236 163.556 420.784 132.803 519.051 129.956Z" fill="#6A3EFC"/>
<path d="M300.449 450.76C313.562 448.255 326.225 456.854 328.734 469.968C331.242 483.083 322.647 495.746 309.535 498.256C296.417 500.773 283.745 492.17 281.236 479.054C278.726 465.933 287.329 453.266 300.449 450.76ZM307.682 494.662C314.925 493.695 321.088 488.906 323.819 482.134C326.551 475.356 325.429 467.635 320.882 461.916C316.335 456.195 309.065 453.361 301.847 454.495C290.864 456.219 283.312 466.459 284.911 477.462C286.51 488.465 296.663 496.131 307.682 494.662Z" fill="#6A3EFC"/>
<path d="M302.544 631.432C315.656 630.091 327.424 639.503 328.993 652.588C330.561 665.679 321.353 677.606 308.295 679.4C299.644 680.594 291.025 677.025 285.749 670.063C280.474 663.107 279.363 653.843 282.844 645.834C286.325 637.825 293.857 632.32 302.544 631.432ZM306.453 675.653C317.511 674.839 325.86 665.287 325.182 654.216C324.502 643.152 315.048 634.69 303.973 635.235C296.691 635.596 290.164 639.839 286.886 646.354C283.608 652.869 284.085 660.639 288.135 666.701C292.184 672.763 299.181 676.186 306.453 675.653Z" fill="#6A3EFC"/>
<path d="M300.246 361.375C313.241 358.774 325.905 367.129 328.626 380.1C331.347 393.07 323.109 405.811 310.164 408.651C297.049 411.529 284.104 403.159 281.348 390.018C278.591 376.877 287.08 364.01 300.246 361.375ZM308.883 405.008C319.891 402.842 327.053 392.156 324.872 381.151C322.691 370.147 311.996 362.999 300.994 365.195C290.013 367.386 282.882 378.057 285.058 389.041C287.235 400.024 297.897 407.17 308.883 405.008Z" fill="#6A3EFC"/>
<path d="M303.245 540.162C316.361 539.226 327.81 548.967 328.978 562.065C330.145 575.162 320.599 586.783 307.524 588.173C298.862 589.098 290.376 585.277 285.327 578.174C280.278 571.078 279.452 561.807 283.166 553.927C286.879 546.047 294.557 540.787 303.245 540.162ZM307.06 584.316C318.131 583.183 326.205 573.319 325.129 562.242C324.052 551.165 314.23 543.04 303.148 544.057C291.982 545.079 283.782 554.992 284.867 566.155C285.951 577.311 295.907 585.461 307.06 584.316Z" fill="#6A3EFC"/>
<path d="M809.693 248.107C810.887 247.953 812.247 248.012 813.447 247.909C853.093 244.48 894.534 267.705 895.441 311.154C896.09 342.397 874.965 373.494 853.957 395.467C817.476 433.631 770.677 461.977 722.875 483.671C716.556 486.518 700.979 493.615 694.715 493.762L694.249 493.193C696.582 489.702 704.279 487.37 708.43 485.839C729.788 477.034 750.49 466.716 770.377 454.968C816.11 428.254 873.771 384.005 888.846 331.082C903.67 279.035 855.898 245.695 808.408 251.671C802.468 252.42 789.763 255.005 784.301 253.634L784.57 253.02L784.117 253.38L785.471 253.795L785.764 252.556C792.432 250.58 802.823 248.756 809.693 248.107Z" fill="#6A3EFC"/>
<path d="M141.67 261.751C142.83 252.84 163.116 224.42 169.766 216.692C238.709 136.57 347.724 105.719 448.599 96.416L452.689 97.013L453.063 97.7753C444.105 99.4286 433.279 100.462 424.066 101.812C408.062 104.252 392.129 107.139 376.287 110.473C285.987 130.014 177.78 177.649 141.934 269.896L140.888 268.831C140.484 267.639 141.654 263.979 141.67 261.751Z" fill="#6A3EFC"/>
<path d="M777.853 298.299C790.675 296.956 808.322 300.073 818.051 309.117C834.896 324.765 822.35 346.602 809.001 359.341C782.893 384.263 749.565 401.02 716.421 414.53C709.19 417.471 701.432 421.854 693.515 421.844L692.933 421.199C695.805 417.731 716.525 410.579 722.122 408.396C754.353 394.049 796.902 372.723 817.274 342.548C825.791 329.94 823.152 314.017 808.45 307.213C787.467 297.496 763.293 302.496 742.554 310.47C741.176 311.002 740.019 310.873 738.77 310.216L739.082 308.995C745.175 303.131 769.183 299.203 777.853 298.299Z" fill="#6A3EFC"/>
<path d="M361.789 642.405C380.82 641.958 401.541 642.411 420.694 642.46L522.541 642.497C532.454 642.503 592.907 641.138 599.018 643.091C600.144 644.756 599.795 643.777 599.379 646.342C583.551 647.028 563.13 646.477 547.008 646.471L448.654 646.458L391.445 646.477C386.658 646.489 362.299 647.653 359.849 644.805C360.331 643.054 360.023 643.875 361.789 642.405Z" fill="#6A3EFC"/>
<path d="M378.05 371.85L538.687 371.856L576.571 371.845C581.867 371.848 595.093 371.509 599.624 372.603L599.893 373.731C596.997 376.288 593.562 375.74 589.809 375.669L444.49 375.665L392.803 375.659C387.896 375.662 362.803 376.602 360.16 374.321L360.549 373.2C364.34 371.135 373.385 371.804 378.05 371.85Z" fill="#6A3EFC"/>
<path d="M361.154 551.074C438.882 550.235 516.828 551.759 594.579 550.927C596.354 550.908 598.099 550.976 599.501 552.127C599.685 553.952 599.826 553.064 598.779 554.815C577.844 555.39 363.23 555.237 361.471 554.46C360.488 554.025 360.642 553.774 360.283 552.837L361.154 551.074Z" fill="#6A3EFC"/>
<path d="M360.786 461.702C410.122 461.016 461.004 461.665 510.534 461.579L571.354 461.555C576.956 461.579 596.097 460.128 599.648 463.079L599.771 465.302C583.661 466.227 559.94 465.406 543.053 465.382L435.698 465.339L378.701 465.204C374.628 465.186 362.597 466.802 360.394 463.649L360.786 461.702Z" fill="#6A3EFC"/>
<path d="M609.09 873.703C665.557 872.803 724.301 873.544 780.897 873.544C794.71 873.507 808.53 873.544 822.344 873.648C826.213 873.673 836.01 872.24 838 875.46L837.321 877.23C818.364 876.44 794.38 877.095 775.172 877.101H653.684C642.712 877.089 631.739 877.083 620.767 877.101C617.503 877.108 609.66 878.583 608.202 875.522L609.09 873.703Z" fill="#6A3EFC"/>
<path d="M61.0155 552.911C66.2954 551.735 71.7957 553.529 75.363 557.595C78.9303 561.66 79.9963 567.349 78.1435 572.431C76.29 577.513 71.8129 581.181 66.4662 581.995C58.5773 583.195 51.1549 577.929 49.6848 570.086C48.2153 562.242 53.2264 554.65 61.0155 552.911ZM67.0442 577.868C71.8876 576.595 75.2418 572.186 75.1793 567.177C75.1377 563.797 73.5304 560.626 70.8277 558.593C68.1256 556.56 64.6336 555.893 61.3725 556.793C55.5831 558.385 52.1671 564.355 53.7272 570.153C55.2874 575.945 61.2378 579.399 67.0442 577.868Z" fill="#6A3EFC"/>
<path d="M361.157 576.227C385.504 575.143 416.917 576.092 441.845 576.098L480.831 576.117C484.364 576.123 499.787 575.529 502.31 577.078C502.757 579.056 502.825 578.076 501.82 580.091L408.698 580.164L378.023 580.176C374.64 580.176 362.968 580.746 360.506 579.178C360.052 577.311 360.014 578.278 361.157 576.227Z" fill="#6A3EFC"/>
<path d="M364.067 667.558L450.754 667.46C466.846 667.43 483.353 667.32 499.463 667.54C501.404 667.565 501.184 667.693 502.5 668.709L502.537 669.971C500.828 671.698 501.857 671.128 499.187 671.434L405.649 671.459L377.069 671.453C373.664 671.447 362.467 672.04 360.404 670.332L360.359 669.212C362.052 667.528 361.356 668.048 364.067 667.558Z" fill="#6A3EFC"/>
<path d="M829.459 457.149L829.599 458.107C826.997 465.712 805.897 487.676 799.743 492.794C775.006 513.362 745.61 529.233 715.515 540.438C709.447 542.697 701.022 545.673 694.77 546.506C694.225 545.6 694.464 546.157 694.231 544.761C696.227 542.318 708.743 538.993 713.066 537.401C731.361 530.543 749.002 522.069 765.791 512.082C783.242 501.642 799.896 489.188 814.531 475.05C820.066 469.704 824.095 462.418 829.459 457.149Z" fill="#6A3EFC"/>
<path d="M778.141 574.935C785.201 573.662 791.961 578.34 793.259 585.393C794.557 592.453 789.897 599.231 782.85 600.548C775.765 601.87 768.95 597.192 767.646 590.102C766.342 583.011 771.051 576.215 778.141 574.935ZM782.856 596.458C787.644 595.153 790.497 590.237 789.254 585.43C788.005 580.624 783.131 577.709 778.306 578.891C775.129 579.668 772.618 582.093 771.73 585.24C770.842 588.394 771.718 591.774 774.02 594.094C776.323 596.415 779.696 597.321 782.856 596.458Z" fill="#6A3EFC"/>
<path d="M360.455 397.32C365.753 396.906 374.778 397.165 380.417 397.166L416.317 397.172L482.729 397.255C486.917 397.277 498.655 396.541 501.863 397.684C502.972 399.328 502.647 398.364 502.2 400.856L500.375 400.872L410.411 400.91C395.137 400.915 379.446 401.009 364.14 400.825C361.996 400.799 361.579 400.67 360.381 399.489L360.455 397.32Z" fill="#6A3EFC"/>
<path d="M25.4332 249.332C30.0396 248.95 34.4953 251.072 37.1 254.89C39.7048 258.709 40.0563 263.632 38.0203 267.781C35.9838 271.93 31.874 274.664 27.2609 274.939C20.2414 275.358 14.1913 270.053 13.691 263.039C13.1908 256.025 18.426 249.914 25.4332 249.332ZM27.8561 270.952C32.6725 270.254 36.0444 265.831 35.4431 261.003C34.8419 256.174 30.4878 252.713 25.6475 253.218C22.4292 253.554 19.6432 255.602 18.3647 258.574C17.0856 261.547 17.513 264.978 19.4816 267.546C21.4508 270.113 24.6537 271.416 27.8561 270.952Z" fill="#6A3EFC"/>
<path d="M360.751 486.806C368.705 486.427 379.048 486.653 387.18 486.616L448.783 486.696L484.749 486.708C488.809 486.708 500.21 485.288 502.531 488.196L502.304 490.211L409.53 490.039C394.413 490.07 379.02 490.204 363.878 490.186C361.664 490.186 361.301 489.984 360.237 488.747L360.751 486.806Z" fill="#6A3EFC"/>
<path d="M781.833 174.633C788.428 174.225 794.11 179.219 794.551 185.809C794.998 192.4 790.032 198.109 783.444 198.586C776.806 199.066 771.045 194.057 770.598 187.419C770.157 180.78 775.196 175.045 781.833 174.633ZM785.905 194.139C790.008 192.367 791.93 187.625 790.21 183.498C788.489 179.371 783.774 177.392 779.623 179.057C776.892 180.153 774.963 182.635 774.572 185.552C774.18 188.47 775.386 191.373 777.737 193.15C780.082 194.928 783.205 195.306 785.905 194.139Z" fill="#6A3EFC"/>
<path d="M150.618 612.482C156.844 612.004 162.301 616.609 162.89 622.823C163.477 629.038 158.979 634.58 152.775 635.278C148.66 635.743 144.614 633.949 142.195 630.594C139.775 627.232 139.358 622.823 141.105 619.07C142.851 615.317 146.489 612.794 150.618 612.482ZM154.463 630.759C158.22 629.124 159.975 624.783 158.407 620.999C156.838 617.215 152.526 615.39 148.717 616.89C146.195 617.888 144.407 620.166 144.038 622.854C143.67 625.542 144.779 628.218 146.94 629.853C149.1 631.494 151.977 631.837 154.463 630.759Z" fill="#6A3EFC"/>
<path d="M449.364 219.849C450.264 220.234 451.189 220.389 451.446 221.141C453.173 226.211 452.701 247.945 451.569 252.058C450.522 251.687 449.021 251.227 448.807 250.28C447.638 245.054 447.583 223.631 449.364 219.849Z" fill="#6A3EFC"/>
<path d="M678.213 831.283C679.756 828.864 681.14 826.188 683.399 824.566C684.893 824.541 684.269 824.29 685.31 825.196C685.481 827.125 683.344 829.685 682.144 831.399L682.781 831.656C683.681 832.036 684.446 832.409 685.322 832.832C685.579 834.558 685.708 833.744 684.636 835.263C683.271 835.691 679.125 836.053 679.407 835.857C677.038 837.522 674.79 840.847 672.268 843.014L670.804 841.343C671.906 838.894 674.203 836.861 676.119 834.865C673.119 834.02 670.829 833.701 668.539 831.662L668.208 830.511C670.284 829.262 671.049 829.446 673.547 830.058C675.109 830.444 676.664 830.854 678.213 831.283Z" fill="#6A3EFC"/>
<path d="M394.467 245.679C399.42 246.664 406.01 255.25 410.035 258.892C412.995 261.571 416.073 264.401 416.197 268.41C410.593 267.164 403.732 257.939 399.304 253.917C396.6 251.461 394.327 249.345 394.467 245.679Z" fill="#6A3EFC"/>
<path d="M504.043 245.652C504.674 245.76 505.353 246.121 505.978 246.388L506.211 247.774C504.588 251.744 490.805 264.468 486.794 268.378C484.927 267.599 485.551 268.232 484.719 266.564C485.674 262.989 500.547 249.122 504.043 245.652Z" fill="#6A3EFC"/>
<path d="M0.542512 873.813C8.07815 873.654 23.0625 872.766 30.6746 874.187C31.5221 874.346 31.4951 874.842 31.8888 875.754L31.0671 877.248C26.3744 877.077 2.08673 878.197 0 875.442L0.542512 873.813Z" fill="#6A3EFC"/>
<path d="M853.516 873.777C858.396 873.581 882.276 872.638 884.639 875.522L884.027 876.765C878.792 876.722 855.316 878.681 853.026 875.479L853.516 873.777Z" fill="#6A3EFC"/>
<path d="M133.988 290.326C134.021 283.086 138.307 268.184 141.67 261.75C141.654 263.979 140.484 267.639 140.888 268.831L141.934 269.896C139.765 276.166 139.533 278.593 137.975 284.505L133.988 290.326Z" fill="#6A3EFC"/>
<path d="M664.369 770.009L666.512 770.413L667.002 771.399C666.267 773.34 659.354 777.332 656.189 780.988L655.644 781.631C654.064 781.808 654.162 781.735 652.729 781.006L652.57 779.641C654.535 775.22 660.144 772.018 664.369 770.009Z" fill="#6A3EFC"/>
<path d="M689.082 780.21C690.447 780.4 690.331 780.418 691.653 780.878C695.321 784.735 696.27 791.122 694.109 795.959C690.667 795.157 688.39 782.947 689.082 780.21Z" fill="#6A3EFC"/>
<path d="M691.194 802.817C697.886 803.741 691.439 815.246 689.492 818.473C688.653 818.314 688.353 818.026 687.551 817.579C686.43 814.867 690 805.731 691.194 802.817Z" fill="#6A3EFC"/>
<path d="M628.635 863.361C630.086 863.606 629.48 863.282 630.466 864.304L629.927 865.51C625.922 868.192 619.487 868.854 614.766 869.46C612.819 868.443 613.333 869.197 612.727 867.488C614.497 865.351 625.077 864.102 628.635 863.361Z" fill="#6A3EFC"/>
<path d="M543.775 856.24C546.99 856.969 556.701 859.608 558.703 862.033C559.31 862.774 558.875 863.655 558.685 864.947C555.054 863.912 546.065 861.935 543.726 858.916C543.181 858.212 543.586 857.404 543.775 856.24Z" fill="#6A3EFC"/>
<path d="M752.724 774.761L753.931 774.908C757.378 777.675 749.773 786.217 747.593 788.954C741.887 786.878 750.361 777.804 752.724 774.761Z" fill="#6A3EFC"/>
<path d="M739.505 794.342C744.813 797.385 735.372 805.254 732.751 807.893L731.073 807.133L730.571 805.701C731.557 802.143 736.866 797.128 739.505 794.342Z" fill="#6A3EFC"/>
<path d="M648.614 788.636C649.931 788.948 649.839 788.911 650.868 789.787C651.535 792.695 650.476 801.996 649.98 804.953C643.502 804.249 646.741 792.285 648.614 788.636Z" fill="#6A3EFC"/>
<path d="M764.383 753.881C770.292 755.859 762.191 765.399 759.907 768.595C754.439 766.844 762.374 756.796 764.383 753.881Z" fill="#6A3EFC"/>
<path d="M652.723 853.319L653.911 854.134C655.362 858.365 643.881 861.769 640.648 862.963C639.295 862.388 639.895 862.792 639.02 861.518C640.495 858.647 648.988 855.309 652.723 853.319Z" fill="#6A3EFC"/>
<path d="M705.553 825.747C706.563 826.072 706.618 826.262 707.524 826.905L707.463 828.197C704.695 831.111 698.976 832.605 695.1 833.836C693.27 833.671 694.066 833.989 692.627 832.85L692.976 831.546C695.474 829.678 702.289 827.143 705.553 825.747Z" fill="#6A3EFC"/>
<path d="M521.72 845.837C525.443 846.137 532.613 849.731 534.958 852.805C535.528 853.552 535.032 854.765 534.86 855.75C531.37 854.354 524.078 851.427 521.818 848.482C521.181 847.65 521.549 847.184 521.72 845.837Z" fill="#6A3EFC"/>
<path d="M723.432 812.148L724.828 813.416L724.865 815.093C722.746 819.061 718.129 821.718 714.394 824.302C713.494 823.457 713.611 823.482 712.912 822.435C713.653 819.232 720.315 814.775 723.432 812.148Z" fill="#6A3EFC"/>
<path d="M568.347 863.306C571.69 864.029 579.699 864.849 581.745 866.876L581.622 868.088L580.324 869.099C576.693 868.829 569.529 868.529 566.89 866.368L566.798 865.008L568.347 863.306Z" fill="#6A3EFC"/>
<path d="M589.606 866.27C593.219 866.313 600.793 866.086 603.867 867.427L604.363 868.682L603.585 870.237C599.948 870.28 591.088 871.254 588.835 868.284L589.606 866.27Z" fill="#6A3EFC"/>
<path d="M650.255 812.638C654.131 813.416 659.96 821.761 660.438 825.423C655.258 825.778 650.219 817.12 650.255 812.638Z" fill="#6A3EFC"/>
<path d="M670.804 841.343L672.268 843.014C669.647 845.727 665.857 850.656 661.705 849.37L661.785 848.023C664.351 844.012 666.537 843.4 670.804 841.343Z" fill="#6A3EFC"/>
<path d="M674.65 769.47C679.548 769.391 685.432 770.34 684.936 776.426C682.187 775.875 677.705 774.1 675.489 772.238C674.362 771.295 674.815 771.516 674.65 769.47Z" fill="#6A3EFC"/>
<path d="M146.548 498.428C152.397 498.121 169.401 497.577 174.994 497.852L175.347 498.421C176.228 498.336 175.857 498.501 176.485 497.993L177.037 498.36C170.266 499.432 165.447 499.769 158.582 500.001C155.546 497.277 149.383 500.393 146.548 498.428Z" fill="#6A3EFC"/>
<path d="M448.599 96.4159C451.593 96.2261 468.682 94.8007 470.244 95.9457C465.547 97.2009 457.973 97.9191 453.063 97.7752L452.689 97.0129L448.599 96.4159Z" fill="#6A3EFC"/>
</svg>
