<svg width="350" height="340" viewBox="0 0 350 340" fill="none" xmlns="http://www.w3.org/2000/svg">
<path d="M253.814 93.4427C277.909 92.5706 306.045 94.1656 327.712 105.846C337.195 110.96 345.809 118.831 348.853 129.455C351.452 138.529 349.451 147.699 344.694 155.803C331.858 177.671 304.451 191.057 281.775 200.087C272.218 203.891 261.18 207.039 251.514 209.812C259.935 211.134 268.549 213.579 276.127 217.514C282.124 220.627 287.815 225.189 289.861 231.897C291.425 237.032 290.41 242.371 287.903 247.019C280.494 260.756 262.057 268.269 247.762 272.573C205.929 285.174 140.097 285.088 101.078 263.933C92.5955 259.335 82.4247 251.748 79.7305 241.913C79.5257 241.166 79.3675 240.266 79.8225 239.579C80.2989 238.862 82.8042 240.095 83.4621 240.37C92.458 244.153 101.394 247.259 110.94 249.369C140.808 255.771 171.628 256.372 201.725 251.144C210.66 249.505 223.686 246.881 231.029 241.311C234.096 237.785 225.775 234.789 223.617 233.995C194.685 223.359 163.712 223.654 133.514 220.933C125.342 220.239 117.204 219.175 109.128 217.747C82.1065 212.937 40.8894 201.161 31.4216 171.363C30.9172 169.775 29.87 164.123 30.6498 162.764C31.0008 162.586 31.4739 162.301 31.8676 162.576C45.7002 172.444 64.0505 177.522 80.8062 180.324C131.045 188.541 181.383 185.457 230.408 172.413C302.878 153.13 314.127 107.612 227.864 100.853C224.556 100.597 221.248 100.379 217.938 100.196C215.776 100.092 213.122 100.107 210.966 99.786C210.417 99.704 210.346 99.3364 210.156 98.9268L210.42 98.457C213.91 96.3768 248.033 93.6188 253.814 93.4427Z" fill="#6A3EFC"/>
<path d="M108.702 28.783C125.701 27.9516 143.171 29.1969 160.053 31.0891C161.759 31.2804 169.506 31.4938 169.513 33.4815C169.056 34.0394 169.203 34.0556 168.355 34.1699C164.64 34.6703 160.738 34.8765 157 35.2304C151.253 35.8189 145.518 36.5263 139.8 37.3523C116.636 40.6105 79.6354 48.0108 64.9642 67.6926C60.942 73.0883 58.7298 79.3569 59.785 86.1189C61.0596 94.2873 67.1864 100.493 73.587 105.176C108.161 130.472 186.52 133.913 229.011 131.13C237.109 130.625 245.186 129.802 253.22 128.661C257.633 128.022 262.036 127.25 266.434 126.518C267.244 126.383 267.387 126.5 267.841 126.894L267.848 127.512C266.235 130.79 257.504 135.538 254.061 137.331C229.586 149.186 192.736 155.798 164.798 157.39C117.55 160.083 55.324 154.413 17.5046 122.877C8.79412 115.485 -0.0194526 102.526 3.22483e-05 90.5762C0.0817736 40.8137 73.8697 30.6108 108.702 28.783Z" fill="#6A3EFC"/>
<path d="M205.427 295.86C208.759 295.251 213.69 296.366 216.657 297.958C223.75 301.565 226.659 310.155 222.363 317.143C211.149 335.383 185.417 342.26 165.301 338.455C157.95 337.065 152.045 334.76 145.676 331.184C136.007 325.458 127.859 317.131 124.423 306.077C124.148 305.191 124.248 304.884 124.633 304.188C125.814 303.713 127.966 305.162 129.16 305.638C146.945 312.686 169.941 312.22 187.159 303.784C194.385 300.246 196.804 296.912 205.427 295.86Z" fill="#6A3EFC"/>
<path d="M283.46 0C283.757 0.0311283 284.527 0.252354 284.584 0.394451C286.223 4.87953 287.513 9.83059 289.086 14.3294C293.34 26.8162 303.843 32.8453 316.163 35.5026C317.698 35.8339 322.817 36.4334 322.959 38.2276C321.983 39.5488 316.57 40.4988 314.673 41.0047C299.825 44.9689 292.282 51.7696 287.896 66.6556C287.269 68.7873 285.574 75.5345 284.579 77.2886C284.26 77.234 283.343 77.1135 283.227 76.7673C280.378 68.4118 278.843 59.3229 272.928 52.3097C270.419 49.3542 267.337 46.939 263.865 45.2111C258.155 42.3166 252.094 40.8921 245.918 39.5239C245.407 39.4105 245.008 39.1009 244.713 38.6706C244.749 38.1122 244.811 37.7491 245.455 37.5587C252.792 35.3924 259.952 34.4618 266.543 30.1167C274.801 24.6728 278.553 16.3214 281.131 7.102C281.675 5.16159 282.357 1.61701 283.46 0Z" fill="#6A3EFC"/>
</svg>
