<svg width="1047" height="340" viewBox="0 0 1047 340" fill="none" xmlns="http://www.w3.org/2000/svg">
<path d="M253.814 93.4427C277.909 92.5706 306.045 94.1656 327.712 105.846C337.195 110.96 345.809 118.831 348.853 129.455C351.452 138.529 349.451 147.699 344.694 155.803C331.858 177.671 304.451 191.057 281.775 200.087C272.218 203.891 261.18 207.039 251.514 209.812C259.935 211.134 268.549 213.579 276.127 217.514C282.124 220.627 287.815 225.189 289.861 231.897C291.425 237.032 290.41 242.371 287.903 247.019C280.494 260.756 262.057 268.269 247.762 272.573C205.929 285.174 140.097 285.088 101.078 263.933C92.5955 259.335 82.4247 251.748 79.7305 241.913C79.5257 241.166 79.3675 240.266 79.8225 239.579C80.2989 238.862 82.8042 240.095 83.4621 240.37C92.458 244.153 101.394 247.259 110.94 249.369C140.808 255.771 171.628 256.372 201.725 251.144C210.66 249.505 223.686 246.881 231.029 241.311C234.096 237.785 225.775 234.789 223.617 233.995C194.685 223.359 163.712 223.654 133.514 220.933C125.342 220.239 117.204 219.175 109.128 217.747C82.1065 212.937 40.8894 201.161 31.4216 171.363C30.9172 169.775 29.87 164.123 30.6498 162.764C31.0008 162.586 31.4739 162.301 31.8676 162.576C45.7002 172.444 64.0505 177.522 80.8062 180.324C131.045 188.541 181.383 185.457 230.408 172.413C302.878 153.13 314.127 107.612 227.864 100.853C224.556 100.597 221.248 100.379 217.938 100.196C215.776 100.092 213.122 100.107 210.966 99.786C210.417 99.704 210.346 99.3364 210.156 98.9268L210.42 98.457C213.91 96.3768 248.033 93.6188 253.814 93.4427Z" fill="#F9FAFB"/>
<path d="M108.702 28.783C125.701 27.9516 143.171 29.1969 160.053 31.0891C161.759 31.2804 169.506 31.4938 169.513 33.4815C169.056 34.0394 169.203 34.0556 168.355 34.1699C164.64 34.6703 160.738 34.8765 157 35.2304C151.253 35.8189 145.518 36.5263 139.8 37.3523C116.636 40.6105 79.6354 48.0108 64.9642 67.6926C60.942 73.0883 58.7298 79.3569 59.785 86.1189C61.0596 94.2873 67.1864 100.493 73.587 105.176C108.161 130.472 186.52 133.913 229.011 131.13C237.109 130.625 245.186 129.802 253.22 128.661C257.633 128.022 262.036 127.25 266.434 126.518C267.244 126.383 267.387 126.5 267.841 126.894L267.848 127.512C266.235 130.79 257.504 135.538 254.061 137.331C229.586 149.186 192.736 155.798 164.798 157.39C117.55 160.083 55.324 154.413 17.5046 122.877C8.79412 115.485 -0.0194526 102.526 3.22483e-05 90.5762C0.0817736 40.8137 73.8697 30.6108 108.702 28.783Z" fill="#F9FAFB"/>
<path d="M205.427 295.86C208.759 295.251 213.69 296.366 216.657 297.958C223.75 301.565 226.659 310.155 222.363 317.143C211.149 335.383 185.417 342.26 165.301 338.455C157.95 337.065 152.045 334.76 145.676 331.184C136.007 325.458 127.859 317.131 124.423 306.077C124.148 305.191 124.248 304.884 124.633 304.188C125.814 303.713 127.966 305.162 129.16 305.638C146.945 312.686 169.941 312.22 187.159 303.784C194.385 300.246 196.804 296.912 205.427 295.86Z" fill="#F9FAFB"/>
<path d="M283.46 0C283.757 0.0311283 284.527 0.252354 284.584 0.394451C286.223 4.87953 287.513 9.83059 289.086 14.3294C293.34 26.8162 303.843 32.8453 316.163 35.5026C317.698 35.8339 322.817 36.4334 322.959 38.2276C321.983 39.5488 316.57 40.4988 314.673 41.0047C299.825 44.9689 292.282 51.7696 287.896 66.6556C287.269 68.7873 285.574 75.5345 284.579 77.2886C284.26 77.234 283.343 77.1135 283.227 76.7673C280.378 68.4118 278.843 59.3229 272.928 52.3097C270.419 49.3542 267.337 46.939 263.865 45.2111C258.155 42.3166 252.094 40.8921 245.918 39.5239C245.407 39.4105 245.008 39.1009 244.713 38.6706C244.749 38.1122 244.811 37.7491 245.455 37.5587C252.792 35.3924 259.952 34.4618 266.543 30.1167C274.801 24.6728 278.553 16.3214 281.131 7.102C281.675 5.16159 282.357 1.61701 283.46 0Z" fill="#F9FAFB"/>
<path d="M440.516 96.391C447.91 96.0039 456.576 96.1871 464.094 96.3976C488.684 97.086 510.655 93.1385 533.664 103.378C562.616 116.263 563.14 165.736 533.463 175.079C535.929 176.227 538.788 176.842 541.292 178.022C561.743 187.658 567.783 212.171 560.975 232.402C560.177 234.777 559.189 237.063 558.159 239.402C555.254 245.051 548.032 251.961 542.446 255.131C528.738 262.91 515.027 263.085 499.863 263.087L473.082 263.088L454.319 263.106C450.104 263.115 443.076 263.519 439.289 262.501C438.985 262.267 438.697 262.004 438.534 261.65C438.13 260.777 438.17 259.535 438.154 258.587C437.776 236.079 438.212 213.496 438.222 190.981C438.227 180.539 437.676 99.8068 438.517 97.8091C438.87 96.9706 439.754 96.746 440.516 96.391ZM467.097 237.957C476.283 238.082 485.471 238.12 494.658 238.073C505.795 238.067 519.08 239.618 527.81 231.426C533.071 226.002 535.044 221.567 534.987 213.797C534.944 207.951 533.253 201.434 528.76 197.368C518.256 187.863 506.64 189.567 494.159 189.446C486.444 189.371 474.077 189.849 466.872 189.183L467.097 237.957ZM466.874 165.237C474.703 165.359 482.533 165.399 490.364 165.355C499.64 165.339 514.025 166.183 520.846 158.82C529.148 149.62 530.144 137.007 520.694 127.782C513.033 120.304 499.52 121.27 489.403 121.285L466.909 121.338C466.783 131.4 466.761 141.464 466.84 151.526C466.851 154.225 467.122 163.081 466.874 165.237Z" fill="#F9FAFB"/>
<path d="M782.505 143.834C788.806 143.224 795.161 143.567 801.357 144.851C821.487 149.129 835.973 161.235 842.521 180.849C845.537 189.888 847.125 202.57 845.127 211.933C841.466 212.673 823.111 212.367 818.25 212.364C797.798 212.433 777.346 212.389 756.893 212.23C758.867 241.437 791.5 252.747 812.944 235.437C819.613 230.053 817.166 226.5 826.345 230.835C829.033 232.02 839.709 236.342 840.333 239.011C840.155 241.755 836.581 245.729 834.797 247.8C824.874 259.31 809.129 265.082 794.257 265.982C777.192 267.118 760.576 262.508 747.784 250.966C730.769 235.613 726.099 212.878 730.226 190.799C735.144 164.494 755.522 145.732 782.505 143.834ZM756.948 192.819L791.385 192.774C798.835 192.78 811.621 193.179 818.639 192.679C817.774 187.474 817.325 184.322 814.517 179.689C807.89 168.765 796.942 165.229 784.687 166.069C767.962 168.231 760.374 176.896 756.948 192.819Z" fill="#F9FAFB"/>
<path d="M932.931 146.466C940.262 146.119 947.808 146.454 955.158 146.429C958.955 146.417 960.995 147.107 962.294 150.806C969.285 170.711 976.707 190.481 984.012 210.273C985.042 213.071 989.391 226.505 990.677 227.912C991.304 227.588 991.6 227.249 991.85 226.506C993.619 221.231 995.421 215.812 997.367 210.61C1001.88 198.994 1004.65 189.343 1009.23 177.483C1010.93 173.093 1017.81 150.385 1020.64 147.21C1021.6 146.138 1045.15 145.097 1046.37 148.117C1046.3 149.315 1045.99 150.851 1045.59 151.974C1041.49 163.378 1037.13 174.769 1032.97 186.154L1025.38 206.602C1023.52 211.673 1021.82 217.067 1019.5 221.895C1018.52 224.076 1017.32 227.861 1016.43 230.249L1009.1 249.794C1003.9 263.803 998.446 277.72 992.751 291.538C990.65 296.754 987.474 306.459 984.578 311.116C981.637 311.449 961.83 311.464 958.741 311.029L958.412 310.587C957.903 305.537 974.555 269.925 976.885 261.194C976.243 258.577 973.932 253.011 972.874 250.241C969.119 240.592 965.247 230.989 961.257 221.436C954.805 205.777 949.155 189.517 942.721 173.802C941.142 169.946 932.991 149.141 932.931 146.466Z" fill="#F9FAFB"/>
<path d="M908.386 96.1369C911.384 95.9629 914.389 95.9548 917.387 96.1124C920.904 96.2978 931.873 97.9236 934.208 100.518C935.911 104.05 932.533 117.32 931.43 121.325C921.16 118.949 907.807 117.014 904.26 129.788C902.883 134.757 903.287 141.297 903.444 146.406C911.336 146.251 921.217 146.483 929.128 146.69C929.483 151.763 929.453 164.7 928.353 169.42C921.317 169.911 910.525 169.338 903.185 169.225C902.868 197.023 902.772 224.824 902.898 252.624C903.275 265.472 902.703 263.118 890.474 263.046C887.671 263.029 879.038 263.793 877.127 262.129C876.187 259.864 876.395 178.069 876.567 169.662C873.722 169.451 860.454 169.71 859.221 168.4C858.203 165.151 858.124 150.278 859.17 147.305C860.909 145.755 873.309 146.376 876.362 146.371C876.281 133.292 875.991 119.224 884.236 108.066C889.766 100.582 899.358 97.0166 908.386 96.1369Z" fill="#F9FAFB"/>
<path d="M639.857 144.053C643.42 143.618 652.163 143.565 655.056 145.596C656.207 148.388 655.653 165.169 655.389 169.171C655.291 170.67 654.067 170.774 652.791 170.645C643.972 169.724 634.494 169.298 626.74 174.545C611.837 184.63 614.156 205.606 614.226 220.924L614.287 247.876C614.3 252.158 614.51 256.787 614.064 260.967C613.787 263.567 607.07 263.357 605.109 263.16C600.135 262.662 592.462 263.947 587.915 262.686C586.715 259.59 587.589 232.319 587.517 226.639C587.311 211.378 587.257 196.116 587.354 180.853C587.329 169.722 587.074 157.98 587.579 146.897C592.345 145.789 608.483 145.478 612.993 147.508C613.641 150.879 613.041 161.234 613.752 162.521L614.301 162.449C615.303 161.545 617.458 157.24 618.746 155.522C623.695 148.922 631.831 145.186 639.857 144.053Z" fill="#F9FAFB"/>
<path d="M681.313 146.463C684.538 146.209 701.498 145.839 704.053 146.891C705.224 148.912 704.832 160.269 704.825 163.472L704.836 188.635L704.797 236.705C704.795 240.286 705.315 260.991 704.242 262.332C703.412 262.93 702.665 262.925 701.654 263.032C696.413 263.092 683.003 263.575 678.582 262.598C677.545 257.458 678.275 245.828 678.288 240.061L678.334 196.588C678.333 189.867 677.425 150.882 678.586 147.359C679.504 146.532 679.949 146.69 681.313 146.463Z" fill="#F9FAFB"/>
<path d="M688.578 99.4552C697.361 97.9139 705.726 103.799 707.245 112.589C708.765 121.379 702.862 129.733 694.072 131.232C685.312 132.726 676.995 126.845 675.481 118.085C673.966 109.325 679.825 100.991 688.578 99.4552Z" fill="#A78BFA"/>
</svg>
